# xmcd CD database file generated by Grip 2.96
# 
# Track frame offsets:
#       150
#       11820
#       25375
#       36067
#       48332
#       58697
#       71980
#       89400
#       100785
#       118257
#       130845
#       143667
#       154627
#       167460
#       178815
#       188912
#       202115
#       215487
#       227325
#       243300
# 
# Disc length: 3382 seconds
# 
# Revision: 0
# Processed by: cddbd v1.4PL0 Copyright (c) Steve Scherf et al.
# Submitted via: Grip 2.96
# 
DISCID=1b0d3414
DTITLE=John Lee Hooker - Testament - Don't look back
DYEAR=1900
DGENRE=
TTITLE0=Boom, boom
TTITLE1=Whiskey and wimmen
TTITLE2=Dusty road
TTITLE3=I'm mad again
TTITLE4=Want ad blues
TTITLE5=I'm going upstairs
TTITLE6=Process
TTITLE7=Let's make it
TTITLE8=Blues before sunrise
TTITLE9=I've got a letter
TTITLE10=Drug store woman
TTITLE11=Send me your pillow
TTITLE12=Take a look at yourself
TTITLE13=This is hip
TTITLE14=I'm leaving baby
TTITLE15=Birmingham blues
TTITLE16=Don't look back
TTITLE17=Your baby ain't sweet like mine
TTITLE18=It serves me right to suffer
TTITLE19=Big legs, tight skirt
EXTD=
EXTT0=
EXTT1=
EXTT2=
EXTT3=
EXTT4=
EXTT5=
EXTT6=
EXTT7=
EXTT8=
EXTT9=
EXTT10=
EXTT11=
EXTT12=
EXTT13=
EXTT14=
EXTT15=
EXTT16=
EXTT17=
EXTT18=
EXTT19=
PLAYORDER=
